<svg width="130" height="130" viewBox="0 0 130 130" fill="none" xmlns="http://www.w3.org/2000/svg"><mask id="mask0" mask-type="alpha" maskUnits="userSpaceOnUse" x="0" y="0" width="130" height="130"><rect width="130" height="130" fill="#111111"/></mask><g mask="url(#mask0)"><path d="M-196.5 -65L94.5 226" stroke="#111111" stroke-width="2"/><path d="M-183.5 -65L107.5 226" stroke="#111111" stroke-width="2"/><path d="M-170.5 -65L120.5 226" stroke="#111111" stroke-width="2"/><path d="M-157.5 -65L133.5 226" stroke="#111111" stroke-width="2"/><path d="M-144.5 -65L146.5 226" stroke="#111111" stroke-width="2"/><path d="M-131.5 -65L159.5 226" stroke="#111111" stroke-width="2"/><path d="M-118.5 -65L172.5 226" stroke="#111111" stroke-width="2"/><path d="M-105.5 -65L185.5 226" stroke="#111111" stroke-width="2"/><path d="M-92.5 -65L198.5 226" stroke="#111111" stroke-width="2"/><path d="M-79.5 -65L211.5 226" stroke="#111111" stroke-width="2"/><path d="M-66.5 -65L224.5 226" stroke="#111111" stroke-width="2"/><path d="M-53.5 -65L237.5 226" stroke="#111111" stroke-width="2"/><path d="M-40.5 -65L250.5 226" stroke="#111111" stroke-width="2"/><path d="M-27.5 -65L263.5 226" stroke="#111111" stroke-width="2"/><path d="M-14.5 -65L276.5 226" stroke="#111111" stroke-width="2"/><path d="M-1.5 -65L289.5 226" stroke="#111111" stroke-width="2"/><path d="M11.5 -65L302.5 226" stroke="#111111" stroke-width="2"/><path d="M24.5 -65L315.5 226" stroke="#111111" stroke-width="2"/><path d="M37.5 -65L328.5 226" stroke="#111111" stroke-width="2"/><path d="M50.5 -65L341.5 226" stroke="#111111" stroke-width="2"/><path d="M63.5 -65L354.5 226" stroke="#111111" stroke-width="2"/></g></svg>
